<svg width="181" height="163" viewBox="0 0 181 163" fill="none" xmlns="http://www.w3.org/2000/svg">
<path d="M124 163V90H113V163" stroke="#989797" stroke-width="0.5"/>
<path fill-rule="evenodd" clip-rule="evenodd" d="M153 0.5L53 19.5L54.4108 20.2784C55.5803 20.0951 56.7791 20 58 20C69.9967 20 79.8481 29.1848 80.906 40.9059L81 41L179.5 21.5L153 0.5Z" fill="#FAF7EA"/>
<path d="M134 20.0978C134 8.9981 142.998 0 154.098 0H156.5C168.926 0 179 10.0736 179 22.5V86L156.5 81.7935L134 77.587V39.7283V20.0978Z" fill="#FAF7EA"/>
<path d="M81 37.4891V101.814C81 102.434 81.5578 102.905 82.1686 102.8L179.169 86.2074C179.649 86.1253 180 85.709 180 85.2218V21" stroke="#989797" stroke-width="0.5"/>
<line x1="154.043" y1="0.246338" x2="50.0426" y2="18.2463" stroke="#989797" stroke-width="0.5"/>
<line x1="139.048" y1="75.2454" x2="36.0477" y2="95.2454" stroke="#989797" stroke-width="0.5"/>
<path fill-rule="evenodd" clip-rule="evenodd" d="M80.5 40.4732V102.402L35.5 94.3052V40.4732C35.5 28.0468 45.5736 17.9732 58 17.9732C70.4264 17.9732 80.5 28.0468 80.5 40.4732ZM81 40.4732V102.492V103L80.5 102.91L35 94.7232V40.4732C35 27.7707 45.2974 17.4732 58 17.4732C70.7025 17.4732 81 27.7707 81 40.4732ZM179.5 21.1518V84.9288L134.5 76.8319V27.7818L134 27.8459V77.25L179.5 85.4368L180 85.5268V85.0188V21.1518C180 9.46998 169.703 0 157 0C153.233 0 149.677 0.832854 146.539 2.30926L148.948 1.86061C151.446 0.981928 154.16 0.5 157 0.5C169.467 0.5 179.5 9.78473 179.5 21.1518Z" fill="#989797"/>
<path d="M81.5 101.409V37.179L178.5 22.5809V85.041L81.5 101.409Z" fill="#FAF7EA" stroke="#FAF7EA"/>
<path d="M17.266 131.024C9.9366 128.74 7.94969 119.304 13.7356 114.258L35.5109 95.2677L80.4599 103.536L61.0476 121.274C49.2251 132.077 32.5554 135.789 17.266 131.024Z" stroke="#989797" stroke-width="0.5"/>
<line x1="153.804" y1="26.0194" x2="168.804" y2="23.0194" stroke="black" stroke-width="2"/>
</svg>
