<svg width="90" height="90" viewBox="0 0 90 90" fill="none" xmlns="http://www.w3.org/2000/svg">
<rect width="90" height="90" rx="8" fill="#FDF2DB"/>
<rect x="40" y="28" width="3" height="30" rx="1.5" fill="#687CC5"/>
<rect x="64" y="35" width="3" height="16" rx="1.5" fill="#687CC5"/>
<rect x="52" y="23" width="3" height="40" rx="1.5" fill="#687CC5"/>
<path d="M22.1237 63.2849L18.5882 73.8915L29.1948 70.356" stroke="#687CC5" stroke-width="2.5"/>
<mask id="path-6-inside-1" fill="white">
<path fill-rule="evenodd" clip-rule="evenodd" d="M14.75 46.28C14.75 30.882 25.9765 18.1061 40.6908 15.6908C39.8312 16.4931 39.0188 17.3502 38.2585 18.2569C25.8733 21.5594 16.75 32.8543 16.75 46.28C16.75 52.7723 19.0618 58.7724 22.8099 63.6101L22.0106 65.8062C17.5441 60.4792 14.75 53.6863 14.75 46.28ZM26.8798 70.5245C32.255 74.7539 38.906 77.28 45.75 77.28C56.0194 77.28 65.7719 72.2186 71.3137 64.4092C70.0672 65.0371 68.7698 65.5707 67.4297 66.0013C62.1281 71.6855 54.1934 75.28 45.75 75.28C39.7797 75.28 33.9591 73.2114 29.1183 69.7098L26.8798 70.5245Z"/>
</mask>
<path fill-rule="evenodd" clip-rule="evenodd" d="M14.75 46.28C14.75 30.882 25.9765 18.1061 40.6908 15.6908C39.8312 16.4931 39.0188 17.3502 38.2585 18.2569C25.8733 21.5594 16.75 32.8543 16.75 46.28C16.75 52.7723 19.0618 58.7724 22.8099 63.6101L22.0106 65.8062C17.5441 60.4792 14.75 53.6863 14.75 46.28ZM26.8798 70.5245C32.255 74.7539 38.906 77.28 45.75 77.28C56.0194 77.28 65.7719 72.2186 71.3137 64.4092C70.0672 65.0371 68.7698 65.5707 67.4297 66.0013C62.1281 71.6855 54.1934 75.28 45.75 75.28C39.7797 75.28 33.9591 73.2114 29.1183 69.7098L26.8798 70.5245Z" fill="#687CC5"/>
<path d="M40.6908 15.6908L42.3966 17.5184L48.4305 11.8869L40.2859 13.2238L40.6908 15.6908ZM38.2585 18.2569L38.9026 20.6725L39.6663 20.4689L40.1742 19.8632L38.2585 18.2569ZM22.8099 63.6101L25.1592 64.4652L25.6308 63.1692L24.7862 62.079L22.8099 63.6101ZM22.0106 65.8062L20.0949 67.4125L22.8783 70.7321L24.3599 66.6613L22.0106 65.8062ZM26.8798 70.5245L26.0248 68.1752L21.8037 69.7115L25.3339 72.4892L26.8798 70.5245ZM71.3137 64.4092L73.3525 65.856L70.1889 62.1765L71.3137 64.4092ZM67.4297 66.0013L66.6649 63.6212L66.0453 63.8203L65.6014 64.2962L67.4297 66.0013ZM29.1183 69.7098L30.5835 67.6842L29.5092 66.9071L28.2633 67.3605L29.1183 69.7098ZM40.2859 13.2238C24.3829 15.8342 12.25 29.6378 12.25 46.28H17.25C17.25 32.1262 27.57 20.378 41.0958 18.1578L40.2859 13.2238ZM40.1742 19.8632C40.8695 19.034 41.6119 18.2508 42.3966 17.5184L38.9851 13.8631C38.0506 14.7353 37.1681 15.6664 36.3428 16.6506L40.1742 19.8632ZM19.25 46.28C19.25 34.0152 27.5843 23.6905 38.9026 20.6725L37.6144 15.8413C24.1623 19.4283 14.25 31.6934 14.25 46.28H19.25ZM24.7862 62.079C21.3446 57.637 19.25 52.1665 19.25 46.28H14.25C14.25 53.3781 16.779 59.9079 20.8337 65.1413L24.7862 62.079ZM24.3599 66.6613L25.1592 64.4652L20.4607 62.7551L19.6614 64.9512L24.3599 66.6613ZM12.25 46.28C12.25 54.3294 15.2884 61.6798 20.0949 67.4125L23.9263 64.2C19.7999 59.2785 17.25 53.0432 17.25 46.28H12.25ZM25.3339 72.4892C31.1059 77.0309 38.2919 79.78 45.75 79.78V74.78C39.5201 74.78 33.4041 72.477 28.4257 68.5598L25.3339 72.4892ZM45.75 79.78C56.8031 79.78 67.3268 74.3472 73.3525 65.856L69.2748 62.9624C64.2169 70.0899 55.2356 74.78 45.75 74.78V79.78ZM70.1889 62.1765C69.0568 62.7468 67.8796 63.2309 66.6649 63.6212L68.1945 68.3815C69.6599 67.9106 71.0776 67.3274 72.4384 66.6419L70.1889 62.1765ZM65.6014 64.2962C60.7728 69.4732 53.5004 72.78 45.75 72.78V77.78C54.8865 77.78 63.4833 73.8977 69.2579 67.7065L65.6014 64.2962ZM45.75 72.78C40.3566 72.78 35.041 70.9086 30.5835 67.6842L27.653 71.7354C32.8771 75.5143 39.2027 77.78 45.75 77.78V72.78ZM28.2633 67.3605L26.0248 68.1752L27.7348 72.8737L29.9733 72.059L28.2633 67.3605Z" fill="#687CC5" mask="url(#path-6-inside-1)"/>
</svg>
